<?xml version="1.0" standalone="no"?>
<!DOCTYPE svg PUBLIC "-//W3C//DTD SVG 20010904//EN"
 "http://www.w3.org/TR/2001/REC-SVG-20010904/DTD/svg10.dtd">
<svg version="1.0" xmlns="http://www.w3.org/2000/svg"
 width="200.000000pt" height="200.000000pt" viewBox="0 0 200.000000 200.000000"
 preserveAspectRatio="xMidYMid meet">
<metadata>
Created by potrace 1.11, written by Peter Selinger 2001-2013
</metadata>
<g transform="translate(0.000000,200.000000) scale(0.100000,-0.100000)"
fill="#000000" stroke="none">
<path d="M843 1886 c-389 -74 -676 -374 -733 -765 -12 -77 -9 -221 5 -294 44
-225 200 -456 390 -578 73 -47 90 -56 160 -84 335 -134 714 -57 971 199 80 80
116 130 167 231 64 126 95 260 95 405 0 85 -3 119 -22 209 -26 124 -113 287
-211 399 -111 125 -327 247 -495 277 -77 14 -256 14 -327 1z m309 -22 c233
-44 417 -159 557 -347 151 -204 202 -452 147 -723 -25 -126 -121 -296 -226
-404 -184 -188 -398 -274 -660 -266 -137 5 -237 29 -353 85 -297 145 -483 434
-493 766 -7 254 85 478 271 659 74 72 121 105 222 155 163 81 358 109 535 75z"/>
<path d="M932 1788 c-7 -7 -12 -30 -12 -52 -1 -41 -1 -41 -18 -18 -9 12 -24
32 -33 44 -11 15 -21 19 -37 14 -20 -7 -21 -9 -6 -31 8 -13 15 -42 16 -64 0
-42 10 -49 38 -31 10 7 12 12 4 18 -6 4 -14 21 -18 37 -5 27 -4 26 20 -13 30
-49 41 -45 53 19 l9 44 2 -35 c1 -19 2 -41 1 -48 -2 -10 4 -12 21 -7 31 10 35
15 18 25 -8 5 -14 27 -14 59 -1 53 -17 66 -44 39z"/>
<path d="M1051 1765 c12 -21 19 -47 17 -66 -2 -27 1 -33 20 -35 19 -3 22 -1
16 21 -6 22 22 78 49 96 13 9 -15 17 -33 10 -8 -3 -15 -12 -15 -20 0 -8 -6
-16 -14 -19 -10 -3 -13 2 -9 22 5 23 2 26 -23 26 l-28 0 20 -35z"/>
<path d="M1206 1765 c7 -17 -15 -87 -30 -97 -13 -8 -8 -13 22 -23 17 -5 23 -3
21 7 -4 33 1 40 26 34 15 -4 25 -2 25 5 0 6 -9 13 -21 16 -12 4 -18 11 -15 20
3 8 6 16 6 19 0 6 35 -9 41 -19 7 -10 29 -1 29 13 0 7 -82 40 -101 40 -5 0 -6
-7 -3 -15z"/>
<path d="M732 1740 c-20 -9 -22 -14 -16 -61 l6 -52 -33 31 c-37 35 -46 37 -69
21 -12 -8 -12 -12 -2 -16 18 -7 54 -82 46 -95 -5 -8 -1 -9 10 -5 10 4 22 7 27
7 5 0 9 7 9 16 0 8 -4 13 -9 10 -4 -3 -13 6 -19 19 -14 31 -10 31 24 0 39 -36
46 -31 39 23 -6 44 -5 46 8 23 8 -14 12 -31 9 -39 -4 -11 1 -13 19 -7 31 10
36 15 23 23 -17 11 -52 85 -47 100 5 14 6 14 -25 2z"/>
<path d="M1331 1684 c-26 -33 -27 -66 -3 -86 31 -27 51 -28 76 -5 36 32 43 70
17 96 -29 29 -65 27 -90 -5z m63 0 c32 -12 6 -84 -30 -84 -34 0 -34 59 0 82
13 9 11 9 30 2z"/>
<path d="M535 1620 c-15 -17 -16 -20 -3 -20 9 0 27 -15 41 -34 21 -27 24 -36
14 -50 -11 -15 -14 -15 -36 0 -12 9 -29 30 -35 46 l-13 29 -24 -20 c-13 -12
-18 -20 -11 -21 7 0 28 -16 46 -35 38 -40 58 -43 86 -15 26 26 25 44 -5 84
-14 18 -25 38 -25 44 0 18 -15 14 -35 -8z"/>
<path d="M1465 1595 c-44 -43 -24 -105 33 -105 21 0 37 8 51 26 26 33 27 58 1
84 -27 27 -56 25 -85 -5z m79 -21 c3 -7 -6 -26 -19 -41 -19 -23 -27 -26 -41
-17 -28 16 -28 31 0 59 25 25 50 25 60 -1z"/>
<path d="M1620 1520 c0 -16 -62 -70 -79 -70 -18 0 -12 -15 17 -43 35 -34 61
-34 97 -2 21 21 26 31 20 53 -7 32 -55 85 -55 62z m34 -56 c3 -9 -4 -25 -19
-40 -28 -28 -38 -30 -54 -10 -9 11 -5 19 19 40 36 30 46 32 54 10z"/>
<path d="M411 1506 c-10 -12 -8 -19 9 -36 27 -27 18 -38 -14 -17 -22 15 -25
15 -41 -3 -16 -17 -14 -18 27 -25 51 -9 81 -23 73 -35 -13 -22 15 -17 29 5 15
24 15 25 -2 25 -18 0 -52 55 -52 85 0 19 -14 19 -29 1z"/>
<path d="M562 1354 c-62 -43 -67 -170 -9 -225 16 -15 22 -33 24 -70 0 -27 1
-53 2 -58 1 -5 10 -7 21 -4 17 4 20 14 20 57 0 43 5 57 25 76 44 42 53 125 20
189 -25 50 -64 63 -103 35z"/>
<path d="M1303 1358 c-5 -7 -9 -54 -8 -105 2 -99 15 -134 61 -155 20 -9 24
-18 24 -53 0 -34 4 -44 19 -48 27 -7 31 0 31 48 0 35 4 44 24 53 45 20 58 54
60 157 2 67 -1 99 -10 106 -25 21 -34 -2 -34 -92 0 -87 -10 -129 -30 -129 -6
0 -10 42 -10 99 0 107 -5 131 -25 131 -19 0 -23 -21 -24 -130 -1 -52 -4 -96
-7 -99 -16 -16 -30 31 -34 121 -5 99 -15 125 -37 96z"/>
<path d="M901 1218 c-62 -23 -127 -84 -156 -143 -24 -50 -31 -143 -15 -199 17
-63 76 -134 140 -170 47 -26 64 -30 130 -30 61 0 84 5 125 26 182 95 214 327
63 463 -82 74 -184 93 -287 53z m197 -134 c41 -32 65 -78 65 -129 0 -160 -209
-221 -294 -86 -36 56 -38 110 -6 166 46 83 159 106 235 49z"/>
<path d="M965 1068 c-43 -15 -64 -36 -76 -78 -38 -126 121 -209 205 -109 74
88 -20 224 -129 187z"/>
<path d="M572 962 c-15 -15 -17 -39 -17 -205 0 -162 3 -189 17 -204 25 -25 68
-4 69 34 6 162 0 365 -11 378 -16 20 -36 19 -58 -3z"/>
<path d="M1377 962 c-25 -27 -25 -382 -1 -406 20 -20 38 -20 58 0 13 13 16 46
16 202 0 103 -4 192 -8 198 -14 22 -48 25 -65 6z"/>
<path d="M1666 603 c-3 -3 0 -13 7 -21 10 -13 9 -15 -10 -10 -12 3 -24 1 -26
-6 -3 -7 6 -13 21 -14 14 -1 31 -7 38 -13 7 -6 18 -8 24 -4 8 5 4 12 -9 22
-12 8 -21 20 -21 28 0 16 -14 27 -24 18z"/>
<path d="M343 570 c-22 -19 -29 -32 -21 -36 7 -4 14 -2 16 4 2 8 8 8 21 0 19
-12 51 -5 51 11 0 5 -8 18 -17 30 l-18 20 -32 -29z m47 -8 c0 -13 -12 -22 -22
-16 -10 6 -1 24 13 24 5 0 9 -4 9 -8z"/>
<path d="M830 531 c0 -29 1 -30 50 -29 36 0 50 4 50 14 0 8 -4 14 -10 14 -5 0
-10 -4 -10 -8 0 -5 -13 -9 -30 -10 -23 0 -30 4 -30 19 0 20 15 26 25 9 3 -5
13 -10 21 -10 8 0 13 4 9 9 -3 6 7 9 22 8 22 -2 28 -7 27 -25 -1 -12 3 -22 7
-22 5 0 9 12 9 26 0 14 4 23 10 19 6 -3 10 -1 10 4 0 16 -97 14 -103 -1 -4
-10 -6 -10 -6 0 -1 6 -12 12 -26 12 -21 0 -25 -5 -25 -29z"/>
<path d="M1020 549 c0 -5 5 -7 10 -4 6 3 10 2 10 -4 0 -5 -4 -13 -10 -16 -23
-14 -7 -25 33 -22 37 2 42 5 42 27 0 32 -32 40 -37 9 -2 -12 -10 -24 -18 -27
-12 -3 -12 -2 -3 8 6 7 9 19 6 26 -6 16 -33 19 -33 3z m73 -24 c-7 -21 -13
-19 -13 6 0 11 4 18 10 14 5 -3 7 -12 3 -20z"/>
<path d="M1124 530 c-1 -17 3 -30 10 -30 8 0 11 11 8 30 -2 17 -7 30 -11 30
-3 0 -7 -13 -7 -30z"/>
<path d="M1154 548 c-4 -6 1 -17 10 -24 13 -9 14 -13 4 -17 -9 -4 -8 -6 4 -6
19 -1 27 16 20 42 -5 19 -27 23 -38 5z m26 -8 c0 -5 -5 -10 -11 -10 -5 0 -7 5
-4 10 3 6 8 10 11 10 2 0 4 -4 4 -10z"/>
<path d="M398 511 c-16 -17 -23 -33 -18 -40 5 -10 9 -8 14 4 9 25 24 9 19 -22
-4 -26 -3 -26 8 -8 7 11 18 24 26 28 18 11 16 31 -4 49 -17 15 -20 14 -45 -11z
m42 -11 c0 -5 -4 -10 -10 -10 -5 0 -10 5 -10 10 0 6 5 10 10 10 6 0 10 -4 10
-10z"/>
<path d="M1573 494 l-42 -43 29 -29 29 -29 21 22 c12 13 17 26 12 29 -6 3 -12
-1 -16 -9 -9 -25 -28 -18 -20 7 6 19 5 21 -8 11 -24 -21 -27 -4 -4 22 l21 24
26 -25 c16 -15 29 -21 33 -16 4 6 2 13 -4 17 -20 12 -10 25 15 19 15 -4 25 -2
25 5 0 6 -6 11 -14 11 -7 0 -19 7 -26 15 -18 22 -31 17 -77 -31z m57 16 c0 -5
-4 -10 -10 -10 -5 0 -10 5 -10 10 0 6 5 10 10 10 6 0 10 -4 10 -10z"/>
<path d="M459 449 l-27 -28 22 -20 c13 -12 26 -18 29 -14 11 10 8 23 -4 21 -6
-2 -14 3 -16 11 -4 10 1 11 18 6 21 -7 22 -6 11 8 -8 9 -9 18 -3 21 5 4 14 -1
19 -10 6 -10 12 -12 16 -6 3 5 -4 16 -17 24 -20 13 -24 12 -48 -13z"/>
<path d="M1507 434 c-3 -4 1 -20 9 -36 15 -29 15 -29 -5 -18 -12 6 -21 16 -21
22 0 6 -8 4 -18 -5 -10 -10 -24 -17 -30 -17 -7 0 -12 -4 -12 -10 0 -5 4 -10 9
-10 5 0 14 -13 21 -29 8 -20 17 -28 26 -24 12 5 11 9 -5 27 -22 23 -28 46 -12
46 5 0 23 -8 40 -17 37 -22 44 -15 30 28 -14 39 -23 52 -32 43z"/>
<path d="M530 416 c0 -8 -9 -21 -20 -29 -18 -13 -19 -16 -5 -27 12 -10 15 -10
15 3 0 9 4 18 8 21 5 3 6 -9 4 -26 l-5 -30 29 18 c29 18 29 18 11 -2 -9 -11
-14 -24 -10 -27 9 -10 25 -9 19 1 -3 5 6 20 19 35 30 31 16 46 -21 23 -24 -16
-24 -16 -22 15 2 19 -2 34 -9 36 -7 3 -13 -2 -13 -11z"/>
<path d="M613 335 c-18 -29 -19 -36 -7 -46 11 -9 14 -8 14 6 0 10 8 27 17 37
10 11 13 22 7 27 -5 5 -18 -5 -31 -24z"/>
<path d="M662 337 c-1 -7 -4 -26 -8 -43 -6 -33 11 -49 40 -38 17 7 38 52 30
66 -4 6 -13 -4 -20 -21 -7 -17 -20 -31 -29 -31 -19 0 -19 11 0 36 18 24 18 31
2 37 -8 3 -14 0 -15 -6z"/>
<path d="M1387 308 c9 -18 16 -36 15 -40 -3 -13 12 -8 37 11 16 12 20 21 12
25 -6 4 -11 2 -11 -3 0 -22 -30 -10 -36 14 -3 14 -13 25 -20 25 -12 0 -11 -6
3 -32z"/>
<path d="M1328 315 l-27 -15 17 -39 c17 -39 17 -39 45 -25 17 9 25 19 20 26
-5 9 -8 9 -11 0 -4 -14 -32 -16 -32 -2 0 6 5 10 10 10 6 0 10 4 10 10 0 5 -7
7 -16 3 -12 -4 -15 -2 -12 8 3 8 11 13 17 12 6 -2 11 4 11 12 0 18 2 18 -32 0z"/>
<path d="M742 305 c4 -4 1 -22 -7 -40 -7 -19 -11 -36 -7 -39 11 -12 21 -6 25
17 3 18 5 17 6 -7 1 -28 1 -29 21 -11 11 10 20 13 20 7 0 -7 -5 -12 -11 -12
-5 0 -7 -4 -4 -10 11 -18 24 -11 31 18 4 15 11 33 17 40 7 9 4 12 -11 12 -12
0 -27 -10 -34 -22 -12 -22 -13 -22 -18 11 -3 19 -12 37 -20 39 -8 3 -12 1 -8
-3z"/>
<path d="M1243 279 c-20 -7 -21 -9 -5 -43 17 -39 32 -44 55 -21 31 31 -7 81
-50 64z m42 -30 c5 -13 2 -25 -6 -30 -16 -9 -15 -11 -23 24 -8 33 19 39 29 6z"/>
<path d="M883 251 c0 -9 -3 -28 -6 -43 -6 -21 -4 -28 7 -28 10 0 13 6 10 15
-4 11 1 15 17 15 21 1 22 2 7 11 -26 15 -23 32 3 18 17 -9 20 -8 17 2 -2 7
-16 16 -30 20 -21 5 -26 3 -25 -10z"/>
<path d="M1123 253 c-9 -3 -10 -10 -4 -21 4 -9 7 -27 6 -39 -2 -25 14 -29 46
-13 19 11 25 36 11 56 -9 14 -43 24 -59 17z m47 -39 c0 -31 -23 -28 -28 4 -2
15 2 22 12 22 11 0 16 -9 16 -26z"/>
<path d="M951 228 c-13 -36 -2 -58 30 -58 22 0 30 6 35 25 12 48 -48 79 -65
33z m47 -24 c-4 -25 -32 -24 -36 0 -4 21 18 40 31 27 5 -5 7 -17 5 -27z"/>
<path d="M1040 235 c-17 -20 -5 -61 20 -68 13 -3 25 2 34 15 30 42 -22 92 -54
53z m44 -38 c-9 -25 -34 -21 -34 6 0 13 3 27 7 31 11 11 34 -19 27 -37z"/>
</g>
</svg>
